<svg width="30" height="43" viewBox="0 0 30 43" fill="none" xmlns="http://www.w3.org/2000/svg">
<path d="M29.1091 32.099C27.5706 38.3551 21.9267 42.9954 15.1975 43C7.30625 43.0058 0.849854 36.4038 0.849854 28.5125V9.2133C0.849854 8.03715 1.76486 7.03587 2.93982 6.99507C4.1742 6.95194 5.1871 7.93926 5.1871 9.16198V18.3891C5.44247 18.1408 5.70699 17.9018 5.98099 17.6722V5.71758C5.98099 4.54151 6.8948 3.54024 8.06976 3.49819C9.30301 3.45395 10.317 4.44119 10.317 5.66511V15.1743C10.5782 15.0799 10.8428 14.9924 11.1109 14.9132V2.2195C11.1109 1.04344 12.0258 0.0421647 13.2008 0.00136139C14.4351 -0.0417703 15.4481 0.945558 15.4481 2.16828V14.328C21.8148 14.4422 27.1684 18.7061 28.9191 24.5284C28.9985 24.7906 29.0357 25.0552 29.0357 25.3153C29.0357 26.4855 28.2758 27.5649 27.095 27.9087C25.7325 28.305 24.3079 27.5742 23.8069 26.2466C23.1237 24.4364 22.2216 23.1541 21.2703 22.2904C20.8205 21.8801 20.6747 21.2332 20.9265 20.6783L22.1841 17.8995C22.3032 17.6384 22.1283 17.3377 21.8427 17.3109L19.9556 17.1337C19.7493 17.1139 19.6349 17.3668 19.7865 17.509L19.9322 17.6465C20.2481 17.9426 20.051 18.473 19.6187 18.4916C18.4182 18.5429 16.6859 18.5721 16.5263 18.3261C16.3806 18.1047 16.9599 17.7142 17.4646 17.4274C17.6091 17.3458 17.5812 17.1454 17.447 17.0894C17.425 17.0801 17.3994 17.0743 17.3714 17.0743H15.5997C15.3898 17.0743 15.2371 17.2712 15.2895 17.4741L15.968 20.1328C16.0472 20.4418 16.3316 20.655 16.651 20.6434C16.9797 20.6317 17.2433 20.6212 17.5661 20.6714C17.7279 20.6958 17.9064 20.7367 18.115 20.7997C18.0207 20.7926 17.9286 20.7891 17.8376 20.7891C17.7571 20.7891 17.6744 20.7914 17.5905 20.7972C17.1639 20.8263 16.7 20.9313 16.2221 21.1236C15.9621 21.2285 15.6976 21.3591 15.4317 21.5199C13.3127 22.7963 11.1352 25.898 10.7133 31.9977C10.6481 32.943 11.1225 33.8557 11.9477 34.3219C13.773 35.3523 16.8387 35.5051 17.8376 35.5051C18.3247 35.5051 19.3028 35.4689 20.3879 35.3115H20.3892C20.9138 35.237 21.4627 35.1321 21.9941 34.991C22.4151 34.8803 22.8241 34.7451 23.2007 34.5819C23.2134 34.5748 23.2276 34.569 23.2402 34.5633C23.2846 34.5447 23.3278 34.5247 23.3708 34.505C23.3754 34.5014 23.3801 34.5003 23.3847 34.4979C23.5025 34.4431 23.6169 34.3837 23.7264 34.3219C24.5504 33.8568 25.0259 32.9454 24.9607 32.0012C24.9607 31.9965 24.9595 31.9919 24.9595 31.9872C24.9095 31.2517 25.4478 30.6083 26.1823 30.5383L27.6532 30.3984C28.5963 30.3087 29.3352 31.1783 29.1091 32.099Z" fill="url(#paint0_linear_2_694)"/>
<path d="M20.4403 28.8645C20.1876 28.5801 19.8834 28.3726 19.5302 28.2409C19.3715 28.1815 19.192 28.122 18.9916 28.0637C18.8202 28.0124 18.6326 27.9611 18.4309 27.9099V26.1288C18.495 26.1369 18.5604 26.1475 18.6244 26.1591C19.0791 26.243 19.5325 26.4121 19.9883 26.6697L20.5081 25.3897C20.1747 25.1824 19.7865 25.0226 19.3425 24.9107C19.0441 24.8361 18.7397 24.7895 18.4309 24.765V23.5761H17.1546V24.8058C16.834 24.8548 16.545 24.9352 16.2897 25.0471C15.8281 25.2476 15.4831 25.5204 15.2535 25.8631C15.025 26.2069 14.9108 26.5904 14.9108 27.0123C14.9108 27.4984 15.0367 27.8866 15.2908 28.178C15.5437 28.4694 15.8468 28.6815 16.2011 28.8132C16.4634 28.91 16.7816 29.0078 17.1546 29.1058V30.881C16.9192 30.846 16.6849 30.7924 16.4506 30.7167C16.0205 30.578 15.6498 30.3938 15.3375 30.1654L14.765 31.4348C15.0915 31.6842 15.5228 31.887 16.06 32.0431C16.4167 32.1469 16.7817 32.2145 17.1547 32.2495V33.4453H18.431V32.2355C18.8027 32.1888 19.1339 32.1014 19.4263 31.9755C19.529 31.93 19.6269 31.8823 19.7178 31.8299C20.0395 31.6491 20.2902 31.4266 20.472 31.1584C20.7039 30.8158 20.8205 30.4358 20.8205 30.0196C20.8205 29.5347 20.6933 29.149 20.4403 28.8645ZM17.1546 27.5602C17.0894 27.5357 17.0287 27.5112 16.9763 27.4867C16.7163 27.3643 16.5858 27.179 16.5858 26.9296C16.5858 26.6801 16.6988 26.4785 16.9238 26.3258C16.989 26.2815 17.0672 26.2443 17.1546 26.2128V27.5602ZM18.8016 30.7121C18.7025 30.7738 18.5777 30.8205 18.4309 30.8553V29.4404C18.6384 29.5091 18.8087 29.6 18.9428 29.7131C19.078 29.8273 19.1454 29.9707 19.1454 30.1444C19.1454 30.3798 19.0301 30.5698 18.8016 30.7121Z" fill="url(#paint1_linear_2_694)"/>
<g opacity="0.3">
<path opacity="0.6" d="M17.0268 34.991C14.7729 34.625 13.2033 32.5717 13.437 30.3004C14.092 23.9355 16.9507 21.2599 18.115 20.7996C18.0208 20.7925 17.9286 20.7891 17.8377 20.7891C17.3457 20.7891 16.7944 20.8928 16.2221 21.1236C15.9621 21.2285 15.6976 21.3591 15.4317 21.5199C13.3127 22.7963 11.1353 25.898 10.7134 31.9977C10.6481 32.943 11.1225 33.8557 11.9477 34.3219C13.7731 35.3523 16.8387 35.5051 17.8376 35.5051C18.5604 35.5051 20.3624 35.4257 21.9941 34.991C20.4757 35.3391 18.631 35.2515 17.0268 34.991Z" fill="black"/>
<path opacity="0.6" d="M16.0414 18.5173C15.7279 17.7234 16.5147 17.1989 17.4471 17.0894C17.4251 17.0801 17.3994 17.0742 17.3715 17.0742H15.5997C15.3899 17.0742 15.2372 17.2712 15.2896 17.474L15.9681 20.1328C16.0473 20.4417 16.3316 20.655 16.6511 20.6433C17.1454 20.6259 17.4903 20.6107 18.1151 20.7996C15.9855 20.1013 16.355 19.3111 16.0414 18.5173Z" fill="black"/>
</g>
<path opacity="0.35" d="M20.388 35.3115C15.6743 36.2896 9.5431 34.8582 9.4265 32.8765C9.4265 25.9411 12.9036 22.0946 15.2895 20.6574C15.2895 20.6574 15.3712 18.7924 15.2895 17.4741L15.968 20.1328C16.0473 20.4418 16.3316 20.655 16.6511 20.6434C16.9797 20.6317 17.2433 20.6212 17.5661 20.6714L17.5905 20.7972C17.164 20.8264 16.7001 20.9313 16.2221 21.1236C15.9622 21.2285 15.6976 21.3591 15.4318 21.5199C13.3128 22.7963 11.1353 25.898 10.7134 31.9977C10.6481 32.943 11.1226 33.8557 11.9478 34.3219C13.7731 35.3523 16.8387 35.5051 17.8377 35.5051C18.3247 35.5051 19.3028 35.469 20.388 35.3115Z" fill="black"/>
<defs>
<linearGradient id="paint0_linear_2_694" x1="-1.5326" y1="6.3108" x2="25.8984" y2="38.3267" gradientUnits="userSpaceOnUse">
<stop stop-color="#D2A1DC"/>
<stop offset="1" stop-color="#8E86EB"/>
</linearGradient>
<linearGradient id="paint1_linear_2_694" x1="-1.39837" y1="6.19584" x2="26.0326" y2="38.2116" gradientUnits="userSpaceOnUse">
<stop stop-color="#D2A1DC"/>
<stop offset="1" stop-color="#8E86EB"/>
</linearGradient>
</defs>
</svg>

